<?xml version="1.0" encoding="utf-8"?>
<!-- Generator: Adobe Illustrator 25.0.1, SVG Export Plug-In . SVG Version: 6.00 Build 0)  -->
<svg version="1.1" id="Layer_1" xmlns="http://www.w3.org/2000/svg" xmlns:xlink="http://www.w3.org/1999/xlink" x="0px" y="0px"
	 viewBox="0 0 17 18" style="enable-background:new 0 0 17 18;" xml:space="preserve">
<style type="text/css">
	.st0{fill:#BC0202;}
</style>
<g>
	<path class="st0" d="M5.1,10.9c-0.4,0-0.7-0.3-0.7-0.7s0.3-0.7,0.7-0.7c0.4,0,0.7,0.3,0.7,0.7C5.9,10.6,5.5,10.9,5.1,10.9 M3.6,9.4
		c-0.4,0-0.7-0.3-0.7-0.7S3.2,8,3.6,8s0.7,0.3,0.7,0.7C4.3,9.1,4,9.4,3.6,9.4 M3.6,12.4c-0.4,0-0.7-0.3-0.7-0.7S3.2,11,3.6,11
		s0.7,0.3,0.7,0.7S4,12.4,3.6,12.4 M2,10.9c-0.4,0-0.7-0.3-0.7-0.7S1.6,9.5,2,9.5s0.7,0.3,0.7,0.7C2.8,10.6,2.4,10.9,2,10.9
		 M3.6,2.9c0.9,0,1.6,0.7,1.6,1.6S4.5,6.1,3.6,6.1S2,5.4,2,4.5S2.7,2.9,3.6,2.9 M7,0H4C1.8,0,0.1,1.7,0.1,3.8v10.4
		C0.1,16.3,1.8,18,4,18h3c0.1,0,0.1,0,0.1-0.1L7,0C7.1,0,7.1,0,7,0 M14.8,5.6c-0.4,0-0.7-0.3-0.7-0.7c0-0.4,0.3-0.7,0.7-0.7
		s0.7,0.3,0.7,0.7C15.5,5.3,15.2,5.6,14.8,5.6 M13.2,12.2c-0.9,0-1.6-0.7-1.6-1.6c0-0.9,0.7-1.6,1.6-1.6s1.6,0.7,1.6,1.6
		C14.9,11.5,14.2,12.2,13.2,12.2 M11,4.9c0-0.4,0.3-0.7,0.7-0.7s0.7,0.3,0.7,0.7c0,0.4-0.3,0.7-0.7,0.7S11,5.3,11,4.9 M13.2,5.7
		C13.7,5.7,14,6,14,6.4s-0.3,0.7-0.7,0.7s-0.7-0.3-0.7-0.7C12.5,6,12.9,5.7,13.2,5.7 M13.2,2.7C13.7,2.7,14,3,14,3.4
		s-0.3,0.7-0.7,0.7s-0.7-0.3-0.7-0.7C12.5,3,12.9,2.7,13.2,2.7 M12.9,0H9.8c0,0-0.1,0-0.1,0.1v17.8c0,0.1,0,0.1,0.1,0.1h3.1
		c2.1,0,3.9-1.7,3.9-3.8V3.8C16.8,1.7,15.1,0,12.9,0"/>
</g>
</svg>
